# xmcd
#
# Track frame offsets:
#   150
#   13762
#   27140
#   38705
#   52032
#   65552
#   79122
#   93322
#   106465
#   120720
#
# Disc length: 1807 seconds
#
# Revision: 0
# Processed by: cddbd v1.5.1PL0 Copyright (c) Steve Scherf et al.
# Submitted via: Media_Universe 3.0
#
DISCID=7d070d0a
DTITLE=Varios - Salvatore Adamo
DYEAR=1995
DGENRE=Data
TTITLE0=1
TTITLE1=2
TTITLE2=3
TTITLE3=4
TTITLE4=5
TTITLE5=6
TTITLE6=7
TTITLE7=8
TTITLE8=9
TTITLE9=10
EXTD=1995
EXTT0=
EXTT1=
EXTT2=
EXTT3=
EXTT4=
EXTT5=
EXTT6=
EXTT7=
EXTT8=
EXTT9=
PLAYORDER=
